<?xml version="1.0" encoding="UTF-8"?>
<svg width="194px" height="45px" viewBox="0 0 194 45" version="1.1" xmlns="http://www.w3.org/2000/svg" xmlns:xlink="http://www.w3.org/1999/xlink">
    <title>logo</title>
    <g id="web" stroke="none" stroke-width="1" fill="none" fill-rule="evenodd">
        <g id="callerdojo.com" transform="translate(-30.000000, -7.000000)">
            <g id="header" transform="translate(0.000000, -0.500000)">
                <g id="logo" transform="translate(30.000000, 8.000000)">
                    <text id="callerdojo" font-family="SFProRounded-Bold, SF Pro Rounded" font-size="32" font-weight="bold" fill="#000000">
                        <tspan x="54.9609375" y="33">caller</tspan>
                        <tspan x="134.820312" y="33" font-family="SFProRounded-Regular, SF Pro Rounded" font-weight="normal">dojo</tspan>
                    </text>
                    <g transform="translate(0.000000, 0.500000)">
                        <path d="M21.3,0 C33.0636652,-2.16095023e-15 42.6,9.53633483 42.6,21.3 C42.6,26.7369434 40.5629307,31.6981037 37.2103891,35.461884 C37.1922764,35.4565115 37.1747845,35.4533742 37.1572236,35.450508 C35.5155656,35.180308 33.4068476,34.60787 32.5252236,33.94202 C32.0095276,33.55023 30.3296556,32.87087 29.5518656,32.588318 C29.1886396,32.456692 28.5671796,31.383226 28.3537216,30.89841 C28.1379476,30.413594 26.6572516,29.433154 26.2797436,29.378728 L26.2206856,27.359948 L30.5068296,26.02709 C30.5068296,26.02709 31.6111756,25.514868 31.7184836,25.514868 C31.7725236,25.514868 31.6444681,25.311832 31.4929148,25.0815348 L31.3609566,24.8815606 C31.252361,24.7161848 31.154896,24.5625233 31.1263596,24.484634 C31.0961068,24.403574 31.0203664,24.1457743 30.9375083,23.8551886 L30.8536988,23.559006 C30.7425791,23.163742 30.6415436,22.795498 30.6415436,22.795498 C30.6415436,22.795498 32.0886576,24.564536 32.8220576,24.895724 C32.8220576,24.895724 31.3811196,22.190636 30.9522736,20.68292 C30.5211116,19.174818 30.2377876,16.819446 30.2377876,16.604444 C30.2377876,16.387898 29.3496016,10.061744 28.8647856,9.01221 C28.8361365,8.95007614 28.6657818,8.95007614 28.3537216,9.01221 C28.5110918,8.61967571 28.5641337,8.37162368 28.5128476,8.26805392 C28.064743,7.36313033 27.4724521,6.3796809 26.5966496,5.835044 C25.4714596,5.13484 23.8031676,4.138188 21.4061076,4.005018 C21.3702096,4.00386 21.3343116,4.00386 21.2991856,4 C21.2632876,4.003088 21.2270036,4.003088 21.1907196,4.005018 C18.7955896,4.138574 17.1272976,5.135612 16.0017216,5.835044 C14.8776896,6.534862 14.2195596,7.961132 13.7343576,9.01221 C13.6888183,9.11087232 13.6888183,9.31754858 13.7343576,9.63223877 C13.5531266,9.88351335 13.4549537,10.053162 13.4398389,10.1411846 C12.7205927,14.3298063 12.3609696,16.4842261 12.3609696,16.604444 C12.3609696,16.819446 12.1096836,19.27016 11.6789076,20.776718 C11.2778403,22.1811723 9.9747061,24.5405595 9.79687103,24.8593123 L9.77669958,24.895338 L9.77669958,24.895338 C10.5108716,24.564536 11.9568276,22.795112 11.9568276,22.795112 C11.9568276,22.795112 11.4357276,24.412066 11.3538956,24.62784 C11.2724496,24.844772 10.7729656,25.514868 10.8810456,25.514868 C10.9875816,25.514868 12.0926996,26.02709 12.0926996,26.02709 L16.3800016,27.359948 L16.3193996,29.378728 C15.9430496,29.433154 14.4623536,30.414366 14.2465796,30.89841 C14.0304196,31.383226 13.4105036,32.456692 13.0480496,32.588318 C12.2683296,32.870484 10.5903876,33.55023 10.0743056,33.94202 C9.19075158,34.608256 7.08705158,35.180308 5.44384958,35.450508 L5.38961087,35.461884 C2.03706928,31.6981037 6.65833528e-16,26.7369434 0,21.3 C-1.44063349e-15,9.53633483 9.53633483,2.16095023e-15 21.3,0 Z" id="Path-2" fill="#32C5FF" fill-rule="nonzero"></path>
                        <path d="M13.7343576,9.63223877 C19.4977379,10.676658 24.3708592,10.4699818 28.3537216,9.01221 C29.087904,8.74349108 29.8116754,8.6014675 30.0610855,8.91531372 C30.4939979,9.4600707 30.6631327,11.1582887 30.1819328,10.5152901 C30.0690768,10.3644873 29.6300277,9.86346063 28.8647856,9.01221 L29.0655441,9.44158478 C29.3637899,10.1573883 29.5129128,10.9309119 29.5129128,11.7621555 C25.5029335,12.9755774 20.8329887,14.0709019 13.0892487,12.2333145 C13.0892487,11.8190101 13.2738835,10.4840188 13.4480423,10.011145 C13.4898643,9.89759048 13.5853027,9.77128839 13.7343576,9.63223877 Z" id="Path-3" fill="#000000"></path>
                        <rect id="Rectangle" stroke="#004D87" stroke-width="2.3" x="1.15" y="1.15" width="40.3" height="40.3" rx="20.15"></rect>
                    </g>
                </g>
            </g>
        </g>
    </g>
</svg>